<svg width="24" height="24" viewBox="0 0 24 24" fill="none" xmlns="http://www.w3.org/2000/svg">
  <path d="M19 13H13V19H11V13H5V11H11V5H13V11H19V13Z" fill="#CCCCCC"/>
  <path d="M20 6.5C20 8.433 18.433 10 16.5 10C14.567 10 13 8.433 13 6.5C13 4.567 14.567 3 16.5 3C18.433 3 20 4.567 20 6.5Z" fill="#CCCCCC"/>
  <path d="M11 6.5C11 8.433 9.433 10 7.5 10C5.567 10 4 8.433 4 6.5C4 4.567 5.567 3 7.5 3C9.433 3 11 4.567 11 6.5Z" fill="#CCCCCC"/>
  <path d="M11 17.5C11 19.433 9.433 21 7.5 21C5.567 21 4 19.433 4 17.5C4 15.567 5.567 14 7.5 14C9.433 14 11 15.567 11 17.5Z" fill="#CCCCCC"/>
  <path d="M20 17.5C20 19.433 18.433 21 16.5 21C14.567 21 13 19.433 13 17.5C13 15.567 14.567 14 16.5 14C18.433 14 20 15.567 20 17.5Z" fill="#CCCCCC"/>
</svg>